<svg width="230" height="82" viewBox="0 0 230 82" fill="none" xmlns="http://www.w3.org/2000/svg">
    <path d="M4.42635 0H12.0873L22.0183 29.1992L31.9208 0H39.5818L25.111 40.8395H18.8971L4.42635 0ZM0 0H7.80286L9.24994 30.265V40.8395H0V0ZM36.2053 0H44.0365V40.8395H34.7582V30.265L36.2053 0Z"
          fill="white"/>
    <path d="M63.9551 25.7491L73.886 0H83.7318L69.6867 32.6492C69.1759 33.8086 68.5895 34.9212 67.9275 35.987C67.2654 37.0342 66.4804 37.9692 65.5724 38.792C64.6834 39.596 63.6146 40.2412 62.3661 40.7273C61.1366 41.1948 59.6801 41.4286 57.9965 41.4286C57.5615 41.4286 57.0413 41.4192 56.436 41.4005C55.8496 41.3818 55.3578 41.3631 54.9605 41.3444L54.847 34.248C55.0929 34.3041 55.4429 34.3415 55.8969 34.3602C56.3698 34.3602 56.7008 34.3602 56.89 34.3602C58.0249 34.3602 58.914 34.2106 59.5571 33.9114C60.2192 33.6122 60.7394 33.1821 61.1177 32.6211C61.5149 32.0602 61.8649 31.3589 62.1675 30.5175L63.9551 25.7491ZM57.7979 0L66.7641 18.9612L69.6867 29.2833L62.962 29.3394L47.9521 0H57.7979Z"
          fill="white"/>
    <path d="M113.95 0V7.09643H93.0101V0H113.95ZM120.363 0V40.8395H111.113V0H120.363ZM92.1305 0H101.324L100.274 20.6442C100.104 23.7296 99.7915 26.4129 99.3375 28.6943C98.9025 30.9569 98.2971 32.8736 97.5216 34.4443C96.7649 35.9964 95.8475 37.2493 94.7693 38.2029C93.6911 39.1379 92.4332 39.8111 90.9956 40.2225C89.5579 40.6339 87.9217 40.8395 86.0869 40.8395H83.8453V33.7712L84.9235 33.659C85.8315 33.5842 86.6165 33.3504 87.2786 32.9577C87.9595 32.565 88.5459 31.9854 89.0378 31.2187C89.5296 30.4333 89.9363 29.4329 90.2578 28.2174C90.5983 27.002 90.8631 25.5247 91.0523 23.7857C91.2604 22.0466 91.4023 20.0084 91.4779 17.671L92.1305 0Z"
          fill="white"/>
    <path d="M133.074 14.4734H142.324C145.616 14.4734 148.472 15.0156 150.893 16.1002C153.314 17.1848 155.178 18.7088 156.483 20.6722C157.788 22.617 158.441 24.8983 158.441 27.5162C158.441 29.4796 158.062 31.2748 157.306 32.9016C156.568 34.5285 155.49 35.9403 154.071 37.1371C152.671 38.3151 150.978 39.2314 148.992 39.8859C147.025 40.5217 144.802 40.8395 142.324 40.8395H127.172V0H136.451V33.7712H142.324C143.837 33.7712 145.105 33.4907 146.126 32.9297C147.148 32.35 147.914 31.5833 148.425 30.6297C148.954 29.676 149.219 28.6195 149.219 27.4601C149.219 26.3194 148.954 25.3097 148.425 24.4308C147.914 23.5332 147.148 22.832 146.126 22.3271C145.105 21.8035 143.837 21.5417 142.324 21.5417H133.074V14.4734Z"
          fill="white"/>
    <path d="M179.097 0V40.8395H169.875V0H179.097ZM191.667 0V7.09643H157.561V0H191.667Z" fill="white"/>
    <path d="M205.031 26.7028L220.778 0H230V40.8395H220.778V14.1648L205.031 40.8395H195.809V0H205.031V26.7028Z"
          fill="white"/>
    <path d="M24.0265 45.4286V51.7018H8.05843V81.5303H0V45.4286H24.0265ZM5.18219 58.2229H13.2654C16.1417 58.2229 18.6377 58.7023 20.7536 59.661C22.8694 60.6197 24.4976 61.967 25.6382 63.7026C26.7788 65.4217 27.3491 67.4384 27.3491 69.7526C27.3491 71.4883 27.0185 73.0752 26.3573 74.5133C25.7126 75.9514 24.7704 77.1995 23.5306 78.2574C22.3074 79.2988 20.8279 80.1088 19.0923 80.6873C17.3731 81.2493 15.4309 81.5303 13.2654 81.5303H0.0247952V45.4286H8.13282V75.282H13.2654C14.5878 75.282 15.6953 75.034 16.588 74.5381C17.4806 74.0257 18.1501 73.3479 18.5964 72.5049C19.0592 71.6619 19.2906 70.7279 19.2906 69.703C19.2906 68.6947 19.0592 67.8021 18.5964 67.0252C18.1501 66.2317 17.4806 65.6118 16.588 65.1655C15.6953 64.7027 14.5878 64.4713 13.2654 64.4713H5.18219V58.2229Z"
          fill="white"/>
    <path d="M46.8133 52.2968L37.4903 81.5303H28.8616L42.2262 45.4286H47.6811L46.8133 52.2968ZM54.5494 81.5303L45.2016 52.2968L44.2346 45.4286H49.7639L63.1781 81.5303H54.5494ZM54.1527 68.0914V74.3397H35.3331V68.0914H54.1527Z"
          fill="white"/>
    <path d="M90.4032 59.9585V66.2069H71.7076V59.9585H90.4032ZM74.2615 45.4286V81.5303H66.1783V45.4286H74.2615ZM95.9821 45.4286V81.5303H87.9237V45.4286H95.9821Z"
          fill="white"/>
    <path d="M110.041 45.4286V81.5303H101.983V45.4286H110.041ZM131.092 45.4286L117.678 66.926H108.454L107.462 59.7106H113.463L121.323 45.4286H131.092ZM122.736 81.5303L113.463 65.5623L119.19 60.0081L132.307 81.5303H122.736Z"
          fill="white"/>
    <path d="M142.498 69.0336L156.259 45.4286H164.318V81.5303H156.259V57.9501L142.498 81.5303H134.439V45.4286H142.498V69.0336Z"
          fill="white"/>
    <path d="M194.394 59.9585V66.2069H175.699V59.9585H194.394ZM178.252 45.4286V81.5303H170.169V45.4286H178.252ZM199.973 45.4286V81.5303H191.915V45.4286H199.973Z"
          fill="white"/>
    <path d="M230 45.4286V51.7018H214.032V81.5303H205.973V45.4286H230Z" fill="white"/>
</svg>
